<svg xmlns="http://www.w3.org/2000/svg" viewBox="0 0 32 40" x="0px" y="0px"><title>16- no - people- warning- delete- user</title><path d="M18.71,17.29h0l-1.42-1.42A7,7,0,1,0,9.12,7.71L3.71,2.29A1,1,0,0,0,2.29,3.71L15.59,17H13.33A7.34,7.34,0,0,0,6,24.33V29a1,1,0,0,0,1,1H25a1,1,0,0,0,1-1V27.41l2.29,2.29a1,1,0,0,0,1.41-1.41ZM11,9a5.05,5.05,0,1,1,4.37,5L11.06,9.65A5,5,0,0,1,11,9ZM24,28H8V24.33A5.34,5.34,0,0,1,13.33,19h4.25L24,25.41Z"/><text x="0" y="47" fill="#000000" font-size="5px" font-weight="bold" font-family="'Helvetica Neue', Helvetica, Arial-Unicode, Arial, Sans-serif">Created by Andi Nur Abdillah</text><text x="0" y="52" fill="#000000" font-size="5px" font-weight="bold" font-family="'Helvetica Neue', Helvetica, Arial-Unicode, Arial, Sans-serif">from the Noun Project</text></svg>